# xmcd
#
# Track frame offsets: 
#        150
#        18592
#        34387
#        49975
#        68663
#        91758
#        112335
#        119443
#        132774
#        151739
#        178834
#
# Disc length: 2498 seconds
#
# Revision: 0
# Processed by: cddbd v1.5.1PL2 Copyright (c) Steve Scherf et al.
# Submitted via: ExactAudioCopy v0.90b4
#
DISCID=9609c00b
DTITLE=David Herzhaft - Des mots d'harmo
DYEAR=2000
DGENRE=Blues
TTITLE0=Panoramic groove
TTITLE1=Wher'd they hide ?
TTITLE2=Bol d'air - Julian Delaney - The drunken Landlady
TTITLE3=Mamambo
TTITLE4=Wayne's brain
TTITLE5=I like to travel
TTITLE6=The movie (part I)
TTITLE7=The movie (part II)
TTITLE8=Niel's walk
TTITLE9=Ghost town
TTITLE10=That's all folks !
EXTD=
EXTT0=
EXTT1=
EXTT2=
EXTT3=
EXTT4=
EXTT5=
EXTT6=
EXTT7=
EXTT8=
EXTT9=
EXTT10=
PLAYORDER=
